<?xml version="1.0" encoding="UTF-8"?>
<svg width="1073px" height="781px" viewBox="0 0 1073 781" version="1.1" xmlns="http://www.w3.org/2000/svg" xmlns:xlink="http://www.w3.org/1999/xlink">
    <!-- Generator: Sketch 57.1 (83088) - https://sketch.com -->
    <title>undraw_QA_engineers_dg5p (1)</title>
    <desc>Created with Sketch.</desc>
    <g id="Page-1" stroke="none" stroke-width="1" fill="none" fill-rule="evenodd">
        <g id="undraw_QA_engineers_dg5p-(1)" transform="translate(536.500000, 390.500000) scale(-1, 1) translate(-536.500000, -390.500000) " fill-rule="nonzero">
            <path d="M1054.17,623.33 C1027.61,678.14 973.65,714.79 917.75,738.96 C872.993551,758.183607 825.683611,770.808574 777.3,776.44 C768.033333,777.54 758.736667,778.393333 749.41,779 C725.577727,780.553351 701.668741,780.526626 677.84,778.92 C663.506667,777.966667 649.223333,776.443333 634.99,774.35 C585.533959,767.134996 537.317802,753.094526 491.72,732.63 C478.56,726.703333 465.666667,720.233333 453.04,713.22 C431.950247,701.530625 411.743081,688.315419 392.58,673.68 C388.34,670.44 384.153333,667.13 380.02,663.75 L378.32,662.36 C375.07,659.68 371.85,656.94 368.58,654.28 C363.144729,649.727028 357.375168,645.588722 351.32,641.9 C350.91,641.66 350.5,641.42 350.08,641.19 C348.96,640.54 347.82,639.93 346.66,639.35 C344.270303,638.14529 341.820422,637.063871 339.32,636.11 C327.77,631.71 315.4,630.11 302.86,630.38 C300.78,630.38 298.7,630.52 296.61,630.66 L296.61,630.66 C293.69,630.86 290.76,631.16 287.84,631.54 L286.76,631.69 C277.455164,633.006735 268.255421,634.981689 259.23,637.6 C245.29,641.6 231.6,646.6 217.82,651.11 L217.82,651.11 C211.97,653.04 206.11,654.88 200.2,656.53 L198.9,656.89 C190.494505,659.25432 181.938155,661.045106 173.29,662.25 C153.637508,664.762427 133.677168,663.154974 114.68,657.53 L114.02,657.34 L112.8,656.98 L111.13,656.46 C108.33,655.58 105.553333,654.616667 102.8,653.57 L101.13,652.93 C98.4633333,651.903333 95.8533333,650.8 93.3,649.62 L91.63,648.86 C88.9633333,647.62 86.3533333,646.31 83.8,644.93 C82.88,644.45 81.97,643.93 81.07,643.44 C78.35,641.92 75.6833333,640.326667 73.07,638.66 C70.2966667,636.893333 67.5833333,635.05 64.93,633.13 C63.7033333,632.25 62.49,631.346667 61.29,630.42 C54.3724604,625.128936 47.8946339,619.286518 41.92,612.95 C41.59,612.62 41.28,612.28 40.97,611.95 C39.38,610.23 37.82,608.48 36.31,606.69 C35.75,606.03 35.19,605.37 34.64,604.69 C32.8466667,602.503333 31.1166667,600.266667 29.45,597.98 C29.2,597.65 28.96,597.31 28.72,596.98 C21.8873755,587.530783 16.2228968,577.289728 11.85,566.48 C11.71,566.15 11.58,565.81 11.46,565.48 C10.1266667,562.046667 8.91,558.556667 7.81,555.01 C7.36,553.53 6.93,552.01 6.55,550.53 C6.42,550.09 6.3,549.64 6.19,549.2 C0.67,527.47 0.04,504.88 0.04,482.42 C0.04,479.8 0.04,477.183333 0.04,474.57 C0.2,438.24 0.76,401.29 6.12,365.46 C6.12,365.21 6.19,364.96 6.23,364.72 C8.02396099,352.657799 10.4641385,340.700596 13.54,328.9 C16.75919,316.517959 20.8733439,304.386051 25.85,292.6 C38.18,263.6 56.11,237.21 76.02,212.75 C100.02,183.32 127.52,156.16 158.15,133.75 C162.55,130.53 167.01,127.403333 171.53,124.37 L173.62,123 C174.35,122.51 175.08,122 175.81,121.57 L175.81,121.57 C177.31,120.57 178.81,119.63 180.33,118.68 L182.03,117.62 L185.27,115.62 L186.27,115.05 L188,114.05 L189.71,113.05 C191.71,111.87 193.733333,110.716667 195.78,109.59 C204.52,104.716667 213.466667,100.263333 222.62,96.23 C225.32,95.0366667 228.036667,93.8866667 230.77,92.78 C243.179529,87.725868 255.927286,83.545673 268.92,80.27 C273.72,79.0566667 278.55,77.99 283.41,77.07 C289.143333,75.9633333 294.906667,75.0466667 300.7,74.32 C309.918977,73.1600712 319.190924,72.469181 328.48,72.25 C393.8,70.66 459.78,91.92 510.97,132.67 C531.37,148.91 549.7,168.14 572.61,180.59 C592.61,191.43 616.02,195.92 637.44,187.39 C655.14,180.34 666.66,176.84 686.54,177.91 C727.676651,180.227183 768.232153,188.70841 806.85,203.07 C808.41,203.64 809.97,204.23 811.52,204.82 C912.23,243.37 998.82,319.92 1043.8,418.29 C1044.98667,420.89 1046.14333,423.51 1047.27,426.15 C1074.1,488.8 1083.78,562.25 1054.17,623.33 Z" id="Path" fill="#4285F4" opacity="0.1"></path>
            <path d="M200.17,277.39 L200.17,656.55 L198.87,656.91 C190.464505,659.27432 181.908155,661.065106 173.26,662.27 C153.607508,664.782427 133.647168,663.174974 114.65,657.55 L113.99,657.36 L112.77,657 L111.1,656.48 C108.3,655.6 105.523333,654.636667 102.77,653.59 L101.1,652.95 C98.4333333,651.923333 95.8233333,650.82 93.27,649.64 L91.6,648.88 C88.9333333,647.64 86.3233333,646.33 83.77,644.95 C82.85,644.47 81.94,643.95 81.04,643.46 C78.32,641.94 75.6533333,640.346667 73.04,638.68 C70.2666667,636.913333 67.5533333,635.07 64.9,633.15 C63.6733333,632.27 62.46,631.366667 61.26,630.44 C54.3424604,625.148936 47.8646339,619.306518 41.89,612.97 C41.56,612.64 41.25,612.3 40.94,611.97 C39.35,610.25 37.79,608.5 36.28,606.71 C35.72,606.05 35.16,605.39 34.61,604.71 C32.8166667,602.523333 31.0866667,600.286667 29.42,598 C29.17,597.67 28.93,597.33 28.69,597 C21.8573755,587.550783 16.1928968,577.309728 11.82,566.5 C11.68,566.17 11.55,565.83 11.43,565.5 C10.0966667,562.066667 8.88,558.576667 7.78,555.03 C7.33,553.55 6.9,552.03 6.52,550.55 C6.39,550.11 6.27,549.66 6.16,549.22 C0.64,527.49 0.01,504.9 0.01,482.44 C0.01,479.82 0.01,477.203333 0.01,474.59 C0.17,438.26 0.73,401.31 6.09,365.48 C6.09,365.23 6.16,364.98 6.2,364.74 C7.99396099,352.677799 10.4341385,340.720596 13.51,328.92 L115.63,328.92 L115.63,277.39 L135.99,277.39 L135.99,236 L179.81,236 L179.81,277.39 L200.17,277.39 Z" id="Path" fill="#4285F4" opacity="0.1"></path>
            <path d="M1054.17,623.33 C1027.61,678.14 973.65,714.79 917.75,738.96 C872.993551,758.183607 825.683611,770.808574 777.3,776.44 C768.033333,777.54 758.736667,778.393333 749.41,779 C725.577727,780.553351 701.668741,780.526626 677.84,778.92 C663.506667,777.966667 649.223333,776.443333 634.99,774.35 C585.533959,767.134996 537.317802,753.094526 491.72,732.63 C478.56,726.703333 465.666667,720.233333 453.04,713.22 C431.950247,701.530625 411.743081,688.315419 392.58,673.68 C388.34,670.44 384.153333,667.13 380.02,663.75 L378.32,662.36 C375.07,659.68 371.85,656.94 368.58,654.28 C363.144729,649.727028 357.375168,645.588722 351.32,641.9 C350.91,641.66 350.5,641.42 350.08,641.19 C348.96,640.54 347.82,639.93 346.66,639.35 C344.270303,638.14529 341.820422,637.063871 339.32,636.11 L339.32,481 L524.91,481 L524.91,515.53 L606.36,515.53 L606.36,262.95 L702.23,262.95 L702.23,363.95 L749.65,363.95 L749.65,304.15 L788.83,304.15 L788.83,240.27 L806.83,240.27 L806.83,203.07 C808.39,203.64 809.95,204.23 811.5,204.82 L811.5,240.27 L829.02,240.27 L829.02,304.19 L868.17,304.19 L868.17,363.99 L925.9,363.99 L925.9,591.82 L1017.66,591.82 L1017.66,426.13 L1047.23,426.13 C1074.1,488.8 1083.78,562.25 1054.17,623.33 Z" id="Path" fill="#4285F4" opacity="0.1"></path>
            <rect id="Rectangle" fill="#4285F4" opacity="0.1" x="635.01" y="300.96" width="42.85" height="42.85"></rect>
            <rect id="Rectangle" fill="#4285F4" opacity="0.1" x="635.01" y="389.78" width="42.85" height="42.85"></rect>
            <rect id="Rectangle" fill="#4285F4" opacity="0.1" x="635.01" y="478.61" width="42.85" height="42.85"></rect>
            <rect id="Rectangle" fill="#4285F4" opacity="0.1" x="635.01" y="567.44" width="42.85" height="42.85"></rect>
            <rect id="Rectangle" fill="#4285F4" opacity="0.1" x="635.01" y="656.26" width="42.85" height="42.85"></rect>
            <path d="M677.86,745.07 L677.86,778.91 C663.526667,777.956667 649.243333,776.433333 635.01,774.34 L635.01,745.07 L677.86,745.07 Z" id="Path" fill="#4285F4" opacity="0.1"></path>
            <rect id="Rectangle" fill="#4285F4" opacity="0.1" x="353.45" y="536.38" width="149.99" height="19.41"></rect>
            <rect id="Rectangle" fill="#4285F4" opacity="0.1" x="353.45" y="595.33" width="149.99" height="19.41"></rect>
            <path d="M503.44,654.28 L503.44,673.68 L392.6,673.68 C388.36,670.44 384.173333,667.13 380.04,663.75 L378.34,662.36 C375.09,659.68 371.87,656.94 368.6,654.28 L503.44,654.28 Z" id="Path" fill="#4285F4" opacity="0.1"></path>
            <path d="M503.44,713.22 L503.44,732.63 L491.74,732.63 C478.58,726.703333 465.686667,720.233333 453.06,713.22 L503.44,713.22 Z" id="Path" fill="#4285F4" opacity="0.1"></path>
            <rect id="Rectangle" fill="#4285F4" opacity="0.1" x="749.43" y="416.99" width="27.89" height="27.89"></rect>
            <rect id="Rectangle" fill="#4285F4" opacity="0.1" x="145.43" y="287.01" width="27.89" height="27.89"></rect>
            <rect id="Rectangle" fill="#4285F4" opacity="0.1" x="145.43" y="351.81" width="27.89" height="27.89"></rect>
            <rect id="Rectangle" fill="#4285F4" opacity="0.1" x="145.43" y="416.6" width="27.89" height="27.89"></rect>
            <rect id="Rectangle" fill="#4285F4" opacity="0.1" x="145.43" y="481.4" width="27.89" height="27.89"></rect>
            <rect id="Rectangle" fill="#4285F4" opacity="0.1" x="145.43" y="546.2" width="27.89" height="27.89"></rect>
            <rect id="Rectangle" fill="#4285F4" opacity="0.1" x="145.43" y="610.99" width="27.89" height="27.89"></rect>
            <rect id="Rectangle" fill="#4285F4" opacity="0.1" x="855.92" y="416.99" width="27.89" height="27.89"></rect>
            <rect id="Rectangle" fill="#4285F4" opacity="0.1" x="749.43" y="485.79" width="27.89" height="27.89"></rect>
            <rect id="Rectangle" fill="#4285F4" opacity="0.1" x="855.92" y="485.79" width="27.89" height="27.89"></rect>
            <rect id="Rectangle" fill="#4285F4" opacity="0.1" x="749.43" y="554.6" width="27.89" height="27.89"></rect>
            <rect id="Rectangle" fill="#4285F4" opacity="0.1" x="855.92" y="554.6" width="27.89" height="27.89"></rect>
            <rect id="Rectangle" fill="#4285F4" opacity="0.1" x="749.43" y="623.41" width="27.89" height="27.89"></rect>
            <rect id="Rectangle" fill="#4285F4" opacity="0.1" x="855.92" y="623.41" width="27.89" height="27.89"></rect>
            <rect id="Rectangle" fill="#4285F4" opacity="0.1" x="749.43" y="692.21" width="27.89" height="27.89"></rect>
            <rect id="Rectangle" fill="#4285F4" opacity="0.1" x="855.92" y="692.21" width="27.89" height="27.89"></rect>
            <polygon id="Path" fill="#4285F4" opacity="0.1" points="749.43 779 749.43 761.01 777.32 761.01 777.32 776.44"></polygon>
            <path d="M6.1,364.75 L6.1,380.75 L112.77,380.75 L112.77,364.75 L6.1,364.75 Z M15.6,379.75 L7.77,379.75 L7.77,365.75 L15.6,365.75 L15.6,379.75 Z M25.1,379.75 L17.27,379.75 L17.27,365.75 L25.1,365.75 L25.1,379.75 Z M34.6,379.75 L26.77,379.75 L26.77,365.75 L34.6,365.75 L34.6,379.75 Z M44.1,379.75 L36.27,379.75 L36.27,365.75 L44.1,365.75 L44.1,379.75 Z M53.6,379.75 L45.77,379.75 L45.77,365.75 L53.6,365.75 L53.6,379.75 Z M63.1,379.75 L55.27,379.75 L55.27,365.75 L63.1,365.75 L63.1,379.75 Z M72.6,379.75 L64.77,379.75 L64.77,365.75 L72.6,365.75 L72.6,379.75 Z M82.1,379.75 L74.27,379.75 L74.27,365.75 L82.1,365.75 L82.1,379.75 Z M91.6,379.75 L83.77,379.75 L83.77,365.75 L91.6,365.75 L91.6,379.75 Z M101.1,379.75 L93.27,379.75 L93.27,365.75 L101.1,365.75 L101.1,379.75 Z M111.1,379.75 L102.77,379.75 L102.77,365.75 L111.1,365.75 L111.1,379.75 Z" id="Shape" fill="#4285F4" opacity="0.1"></path>
            <path d="M6.1,411.21 L6.1,427.16 L112.77,427.16 L112.77,411.21 L6.1,411.21 Z M15.6,426.16 L7.77,426.16 L7.77,412.21 L15.6,412.21 L15.6,426.16 Z M25.1,426.16 L17.27,426.16 L17.27,412.21 L25.1,412.21 L25.1,426.16 Z M34.6,426.16 L26.77,426.16 L26.77,412.21 L34.6,412.21 L34.6,426.16 Z M44.1,426.16 L36.27,426.16 L36.27,412.21 L44.1,412.21 L44.1,426.16 Z M53.6,426.16 L45.77,426.16 L45.77,412.21 L53.6,412.21 L53.6,426.16 Z M63.1,426.16 L55.27,426.16 L55.27,412.21 L63.1,412.21 L63.1,426.16 Z M72.6,426.16 L64.77,426.16 L64.77,412.21 L72.6,412.21 L72.6,426.16 Z M82.1,426.16 L74.27,426.16 L74.27,412.21 L82.1,412.21 L82.1,426.16 Z M91.6,426.16 L83.77,426.16 L83.77,412.21 L91.6,412.21 L91.6,426.16 Z M101.1,426.16 L93.27,426.16 L93.27,412.21 L101.1,412.21 L101.1,426.16 Z M111.1,426.16 L102.77,426.16 L102.77,412.21 L111.1,412.21 L111.1,426.16 Z" id="Shape" fill="#4285F4" opacity="0.1"></path>
            <path d="M6.1,457.66 L6.1,473.61 L112.77,473.61 L112.77,457.66 L6.1,457.66 Z M15.6,472.61 L7.77,472.61 L7.77,458.66 L15.6,458.66 L15.6,472.61 Z M25.1,472.61 L17.27,472.61 L17.27,458.66 L25.1,458.66 L25.1,472.61 Z M34.6,472.61 L26.77,472.61 L26.77,458.66 L34.6,458.66 L34.6,472.61 Z M44.1,472.61 L36.27,472.61 L36.27,458.66 L44.1,458.66 L44.1,472.61 Z M53.6,472.61 L45.77,472.61 L45.77,458.66 L53.6,458.66 L53.6,472.61 Z M63.1,472.61 L55.27,472.61 L55.27,458.66 L63.1,458.66 L63.1,472.61 Z M72.6,472.61 L64.77,472.61 L64.77,458.66 L72.6,458.66 L72.6,472.61 Z M82.1,472.61 L74.27,472.61 L74.27,458.66 L82.1,458.66 L82.1,472.61 Z M91.6,472.61 L83.77,472.61 L83.77,458.66 L91.6,458.66 L91.6,472.61 Z M101.1,472.61 L93.27,472.61 L93.27,458.66 L101.1,458.66 L101.1,472.61 Z M111.1,472.61 L102.77,472.61 L102.77,458.66 L111.1,458.66 L111.1,472.61 Z" id="Shape" fill="#4285F4" opacity="0.1"></path>
            <path d="M6.1,504.07 L6.1,520.07 L112.77,520.07 L112.77,504.07 L6.1,504.07 Z M15.6,519.07 L7.77,519.07 L7.77,505.07 L15.6,505.07 L15.6,519.07 Z M25.1,519.07 L17.27,519.07 L17.27,505.07 L25.1,505.07 L25.1,519.07 Z M34.6,519.07 L26.77,519.07 L26.77,505.07 L34.6,505.07 L34.6,519.07 Z M44.1,519.07 L36.27,519.07 L36.27,505.07 L44.1,505.07 L44.1,519.07 Z M53.6,519.07 L45.77,519.07 L45.77,505.07 L53.6,505.07 L53.6,519.07 Z M63.1,519.07 L55.27,519.07 L55.27,505.07 L63.1,505.07 L63.1,519.07 Z M72.6,519.07 L64.77,519.07 L64.77,505.07 L72.6,505.07 L72.6,519.07 Z M82.1,519.07 L74.27,519.07 L74.27,505.07 L82.1,505.07 L82.1,519.07 Z M91.6,519.07 L83.77,519.07 L83.77,505.07 L91.6,505.07 L91.6,519.07 Z M101.1,519.07 L93.27,519.07 L93.27,505.07 L101.1,505.07 L101.1,519.07 Z M111.1,519.07 L102.77,519.07 L102.77,505.07 L111.1,505.07 L111.1,519.07 Z" id="Shape" fill="#4285F4" opacity="0.1"></path>
            <path d="M6.51,550.56 C6.89,552.06 7.32,553.56 7.77,555.04 L7.77,551.56 L15.6,551.56 L15.6,565.56 L11.42,565.56 C11.54,565.89 11.67,566.23 11.81,566.56 L112.81,566.56 L112.81,550.56 L6.51,550.56 Z M25.1,565.56 L17.27,565.56 L17.27,551.56 L25.1,551.56 L25.1,565.56 Z M34.6,565.56 L26.77,565.56 L26.77,551.56 L34.6,551.56 L34.6,565.56 Z M44.1,565.56 L36.27,565.56 L36.27,551.56 L44.1,551.56 L44.1,565.56 Z M53.6,565.56 L45.77,565.56 L45.77,551.56 L53.6,551.56 L53.6,565.56 Z M63.1,565.56 L55.27,565.56 L55.27,551.56 L63.1,551.56 L63.1,565.56 Z M72.6,565.56 L64.77,565.56 L64.77,551.56 L72.6,551.56 L72.6,565.56 Z M82.1,565.56 L74.27,565.56 L74.27,551.56 L82.1,551.56 L82.1,565.56 Z M91.6,565.56 L83.77,565.56 L83.77,551.56 L91.6,551.56 L91.6,565.56 Z M101.1,565.56 L93.27,565.56 L93.27,551.56 L101.1,551.56 L101.1,565.56 Z M111.1,565.56 L102.77,565.56 L102.77,551.56 L111.1,551.56 L111.1,565.56 Z" id="Shape" fill="#4285F4" opacity="0.1"></path>
            <path d="M28.68,597.01 C28.92,597.34 29.16,597.68 29.41,598.01 L34.6,598.01 L34.6,604.72 C35.15,605.39 35.71,606.05 36.27,606.72 L36.27,598.02 L44.1,598.02 L44.1,612.02 L40.93,612.02 C41.24,612.35 41.55,612.69 41.88,613.02 L112.77,613.02 L112.77,597.02 L28.68,597.01 Z M53.6,612.01 L45.77,612.01 L45.77,598.01 L53.6,598.01 L53.6,612.01 Z M63.1,612.01 L55.27,612.01 L55.27,598.01 L63.1,598.01 L63.1,612.01 Z M72.6,612.01 L64.77,612.01 L64.77,598.01 L72.6,598.01 L72.6,612.01 Z M82.1,612.01 L74.27,612.01 L74.27,598.01 L82.1,598.01 L82.1,612.01 Z M91.6,612.01 L83.77,612.01 L83.77,598.01 L91.6,598.01 L91.6,612.01 Z M101.1,612.01 L93.27,612.01 L93.27,598.01 L101.1,598.01 L101.1,612.01 Z M111.1,612.01 L102.77,612.01 L102.77,598.01 L111.1,598.01 L111.1,612.01 Z" id="Shape" fill="#4285F4" opacity="0.1"></path>
            <path d="M81.04,643.46 C81.94,643.97 82.85,644.46 83.77,644.95 L83.77,644.46 L91.6,644.46 L91.6,648.88 L93.27,649.64 L93.27,644.46 L101.1,644.46 L101.1,652.95 L102.77,653.59 L102.77,644.46 L111.1,644.46 L111.1,656.46 L112.77,656.98 L112.77,643.46 L81.04,643.46 Z" id="Path" fill="#4285F4" opacity="0.1"></path>
            <path d="M409.96,226.24 C409.96,226.24 386.12,224.8 388.96,241.5 C388.661216,243.241146 389.51693,244.976791 391.08,245.8 C391.08,245.8 391.08,244.56 393.52,244.98 C394.375729,245.120584 395.244938,245.160856 396.11,245.1 C397.279934,245.02298 398.39285,244.566579 399.28,243.8 L399.28,243.8 C399.28,243.8 405.98,241.03 408.59,230.08 C408.59,230.08 410.51,227.69 410.44,227.08 L406.44,228.8 C406.44,228.8 407.82,231.7 406.74,234.11 C406.74,234.11 406.61,228.91 405.83,229.03 C405.68,229.03 403.74,230.03 403.74,230.03 C403.74,230.03 406.11,235.09 404.32,238.76 C404.32,238.76 405,232.54 403.01,230.4 L400.11,232.07 C400.11,232.07 402.88,237.29 401,241.55 C401,241.55 401.49,235.02 399.52,232.48 L396.95,234.48 C396.95,234.48 399.55,239.62 397.95,243.16 C397.95,243.16 397.74,235.55 396.38,234.97 C395.404117,235.792551 394.53413,236.733077 393.79,237.77 C393.79,237.77 395.57,241.5 394.47,243.47 C394.47,243.47 393.79,238.41 393.23,238.38 C393.23,238.38 391,241.74 390.77,244.04 C390.872758,241.906233 391.534907,239.83702 392.69,238.04 C391.401741,238.283735 390.212921,238.899002 389.27,239.81 C389.27,239.81 389.62,237.44 393.27,237.23 C393.27,237.23 395.12,234.69 395.62,234.53 C395.62,234.53 392.01,234.23 389.82,235.2 C389.82,235.2 391.75,232.96 396.28,233.98 L398.81,231.91 C398.81,231.91 394.06,231.26 392.05,231.98 C392.05,231.98 394.36,229.98 399.49,231.44 L402.25,229.79 C400.129801,229.325697 397.958469,229.13747 395.79,229.23 C395.79,229.23 398.33,227.86 403.06,229.35 L405.06,228.46 C405.06,228.46 402.06,227.88 401.23,227.79 C400.4,227.7 400.31,227.46 400.31,227.46 C402.188255,227.146806 404.116589,227.36145 405.88,228.08 C405.88,228.08 410.03,226.5 409.96,226.24 Z" id="Path" fill="#4285F4" opacity="0.1"></path>
            <path d="M347.38,307.51 C347.38,307.51 339.23,329.95 356.05,332 C357.629926,332.777242 359.530495,332.450393 360.76,331.19 C360.76,331.19 359.59,330.8 360.67,328.61 C361.048406,327.831969 361.336934,327.013356 361.53,326.17 C361.782923,325.024367 361.656574,323.827563 361.17,322.76 L361.17,322.76 C361.17,322.76 360.42,315.55 350.66,309.94 C350.66,309.94 348.92,307.41 348.31,307.31 L348.81,311.66 C348.81,311.66 351.98,311.16 353.99,312.88 C353.99,312.88 348.99,311.53 348.86,312.31 C348.86,312.46 349.23,314.6 349.23,314.6 C349.23,314.6 354.75,313.76 357.76,316.52 C357.76,316.52 351.98,314.1 349.37,315.41 L350.15,318.59 C350.15,318.59 355.94,317.43 359.49,320.43 C359.49,320.43 353.37,318.12 350.37,319.28 L351.56,322.28 C351.56,322.28 357.23,321.28 360.17,323.77 C360.17,323.77 352.81,321.77 351.88,322.95 C352.392157,324.114387 353.043575,325.212396 353.82,326.22 C353.82,326.22 357.91,325.58 359.48,327.22 C359.48,327.22 354.43,326.43 354.25,326.95 C354.25,326.95 356.84,330.05 358.98,330.95 C356.970378,330.238809 355.181343,329.015096 353.79,327.4 C353.657492,328.707537 353.911296,330.02523 354.52,331.19 C354.52,331.19 352.34,330.19 353.17,326.64 C353.17,326.64 351.25,324.15 351.25,323.64 C351.25,323.64 349.93,327.01 350.25,329.39 C350.25,329.39 348.65,326.9 350.91,322.85 L349.65,319.85 C349.65,319.85 347.65,324.22 347.79,326.36 C347.79,326.36 346.55,323.57 349.39,319.06 L348.6,315.95 C347.553473,317.838914 346.756804,319.855796 346.23,321.95 C346.23,321.95 345.63,319.12 348.4,315.01 L348.11,312.87 C348.11,312.87 346.71,315.55 346.38,316.36 C346.05,317.17 345.8,317.14 345.8,317.14 C346.030309,315.248886 346.781589,313.45897 347.97,311.97 C347.97,311.97 347.65,307.51 347.38,307.51 Z" id="Path" fill="#4285F4" opacity="0.1"></path>
            <path d="M505.41,288.59 C505.41,288.59 497.27,311.07 514.08,313.07 C515.665079,313.846371 517.569652,313.515492 518.8,312.25 C518.8,312.25 517.62,311.86 518.71,309.68 C519.091615,308.900815 519.377045,308.078108 519.56,307.23 C519.816048,306.085445 519.693213,304.888678 519.21,303.82 L519.21,303.82 C519.21,303.82 518.46,296.61 508.7,291 C508.7,291 506.95,288.48 506.34,288.38 L506.85,292.72 C506.85,292.72 510.02,292.23 512.03,293.95 C512.03,293.95 507.03,292.6 506.89,293.37 C506.89,293.53 507.26,295.66 507.26,295.66 C507.26,295.66 512.78,294.83 515.8,297.58 C515.8,297.58 510.02,295.17 507.4,296.47 L508.19,299.66 C508.19,299.66 513.98,298.49 517.53,301.5 C517.53,301.5 511.4,299.18 508.4,300.34 L509.59,303.34 C509.59,303.34 515.26,302.34 518.2,304.83 C518.2,304.83 510.85,302.83 509.91,304.02 C510.43816,305.188892 511.110009,306.287366 511.91,307.29 C511.91,307.29 515.99,306.64 517.57,308.29 C517.57,308.29 512.52,307.5 512.34,308.03 C512.34,308.03 514.92,311.12 517.06,312.03 C515.051651,311.32188 513.265115,310.097516 511.88,308.48 C511.747358,309.786425 511.997516,311.103229 512.6,312.27 C512.6,312.27 510.43,311.27 511.26,307.73 C511.26,307.73 509.34,305.23 509.33,304.73 C509.33,304.73 508.02,308.11 508.33,310.48 C508.33,310.48 506.73,308 508.99,303.94 L507.73,300.94 C507.73,300.94 505.73,305.31 505.87,307.44 C505.87,307.44 504.63,304.66 507.47,300.15 L506.67,297.03 C505.623473,298.918914 504.826804,300.935796 504.3,303.03 C504.3,303.03 503.71,300.2 506.48,296.09 L506.19,293.95 C506.19,293.95 504.79,296.63 504.45,297.44 C504.11,298.25 503.87,298.22 503.87,298.22 C504.106779,296.328816 504.861168,294.539738 506.05,293.05 C506.05,293.05 505.69,288.6 505.41,288.59 Z" id="Path" fill="#4285F4" opacity="0.1"></path>
            <path d="M279.51,472.07 C279.51,472.07 271.36,494.52 288.18,496.57 C289.761552,497.348015 291.664432,497.016728 292.89,495.75 C292.89,495.75 291.72,495.36 292.8,493.18 C293.184424,492.401005 293.473188,491.578361 293.66,490.73 C293.918127,489.584665 293.791601,488.386185 293.3,487.32 L293.3,487.32 C293.3,487.32 292.55,480.11 282.79,474.51 C282.79,474.51 281.05,471.98 280.44,471.88 L280.94,476.22 C280.94,476.22 284.12,475.73 286.12,477.45 C286.12,477.45 281.12,476.1 280.99,476.87 C280.99,477.03 281.36,479.16 281.36,479.16 C281.36,479.16 286.88,478.33 289.89,481.08 C289.89,481.08 284.11,478.67 281.5,479.97 L282.28,483.16 C282.28,483.16 288.07,481.99 291.62,485 C291.62,485 285.5,482.68 282.5,483.84 L283.69,486.84 C283.69,486.84 289.36,485.84 292.3,488.33 C292.3,488.33 284.95,486.33 284.01,487.52 C284.522157,488.684387 285.173575,489.782396 285.95,490.79 C285.95,490.79 290.04,490.14 291.62,491.79 C291.62,491.79 286.56,491 286.38,491.53 C286.38,491.53 288.97,494.62 291.11,495.53 C289.099999,494.824557 287.31037,493.603885 285.92,491.99 C285.787704,493.29431 286.04155,494.608744 286.65,495.77 C286.65,495.77 284.47,494.77 285.3,491.23 C285.3,491.23 283.39,488.73 283.38,488.23 C283.38,488.23 282.06,491.61 282.38,493.98 C282.38,493.98 280.78,491.5 283.04,487.44 L281.78,484.44 C281.78,484.44 279.78,488.81 279.93,490.94 C279.93,490.94 278.69,488.16 281.53,483.65 L280.73,480.54 C279.681512,482.427987 278.88474,484.445132 278.36,486.54 C278.36,486.54 277.76,483.7 280.53,479.6 L280.24,477.45 C280.24,477.45 278.84,480.13 278.51,480.94 C278.18,481.75 277.93,481.72 277.93,481.72 C278.161152,479.827313 278.916163,478.036758 280.11,476.55 C280.11,476.55 279.78,472.07 279.51,472.07 Z" id="Path" fill="#4285F4" opacity="0.1"></path>
            <path d="M247.17,260.48 C247.17,260.48 239.03,282.92 255.84,284.97 C257.423453,285.745631 259.325741,285.419179 260.56,284.16 C260.56,284.16 259.38,283.77 260.47,281.58 C260.847159,280.798966 261.1324,279.976799 261.32,279.13 C261.576015,277.988752 261.453145,276.795158 260.97,275.73 L260.97,275.73 C260.97,275.73 260.22,268.52 250.45,262.91 C250.45,262.91 248.71,260.38 248.1,260.28 L248.61,264.63 C248.61,264.63 251.78,264.13 253.78,265.85 C253.78,265.85 248.78,264.5 248.65,265.28 C248.65,265.43 249.02,267.57 249.02,267.57 C249.02,267.57 254.54,266.73 257.56,269.49 C257.56,269.49 251.78,267.07 249.16,268.38 L249.94,271.56 C249.94,271.56 255.73,270.39 259.29,273.4 C259.29,273.4 253.16,271.08 250.16,272.25 L251.35,275.25 C251.35,275.25 257.02,274.25 259.96,276.75 C259.96,276.75 252.61,274.75 251.67,275.93 C252.182157,277.094387 252.833575,278.192396 253.61,279.2 C253.61,279.2 257.7,278.56 259.28,280.2 C259.28,280.2 254.23,279.41 254.05,279.93 C254.05,279.93 256.63,283.03 258.77,283.93 C256.761641,283.216326 254.973201,281.993018 253.58,280.38 C253.447492,281.687537 253.701296,283.00523 254.31,284.17 C254.31,284.17 252.13,283.17 252.97,279.62 C252.97,279.62 251.05,277.13 251.04,276.62 C251.04,276.62 249.73,279.99 250.04,282.37 C250.04,282.37 248.43,279.88 250.7,275.83 L249.43,272.83 C249.43,272.83 247.43,277.2 247.58,279.34 C247.58,279.34 246.34,276.55 249.18,272.04 L248.38,268.93 C247.333473,270.818914 246.536804,272.835796 246.01,274.93 C246.01,274.93 245.42,272.1 248.18,267.99 L247.9,265.85 C247.9,265.85 246.49,268.53 246.16,269.33 C245.83,270.13 245.58,270.12 245.58,270.12 C245.811152,268.227313 246.566163,266.436758 247.76,264.95 C247.76,264.95 247.45,260.48 247.17,260.48 Z" id="Path" fill="#4285F4" opacity="0.1"></path>
            <path d="M307.61,382.68 C307.61,382.68 313.9,405.68 328.82,397.68 C330.559295,397.403296 331.923296,396.039295 332.2,394.3 C332.2,394.3 331.02,394.66 330.65,392.25 C330.50897,391.394525 330.267292,390.558724 329.93,389.76 C329.486685,388.674391 328.695225,387.766851 327.68,387.18 L327.68,387.18 C327.68,387.18 322.91,381.72 311.68,382.76 C311.68,382.76 308.8,381.71 308.24,381.98 L311.16,385.23 C311.16,385.23 313.47,383 316.1,383.23 C316.1,383.23 311.21,385.03 311.57,385.72 C311.65,385.86 313.19,387.38 313.19,387.38 C313.19,387.38 317.19,383.51 321.27,384.02 C321.27,384.02 315.16,385.38 313.78,387.96 L316.25,390.11 C316.25,390.11 320.31,385.82 324.95,386.22 C324.95,386.22 318.6,387.86 316.82,390.54 L319.54,392.33 C319.54,392.33 323.54,388.22 327.44,388.59 C327.44,388.59 320.3,391.22 320.19,392.7 C321.282274,393.356986 322.450998,393.877538 323.67,394.25 C323.67,394.25 326.67,391.37 328.86,391.78 C328.86,391.78 324.27,394.05 324.43,394.58 C324.43,394.58 328.33,395.58 330.58,395.1 C328.531269,395.680841 326.366186,395.715317 324.3,395.2 C324.943233,396.344563 325.910414,397.273475 327.08,397.87 C327.08,397.87 324.72,398.3 323.36,394.93 C323.36,394.93 320.36,394 320.04,393.58 C320.04,393.58 320.92,397.1 322.54,398.86 C322.54,398.86 319.8,397.75 319.31,393.13 L316.54,391.4 C316.54,391.4 317.45,396.11 318.77,397.78 C318.77,397.78 316.15,396.22 315.87,390.9 L313.43,388.82 C313.66761,390.977959 314.185298,393.095775 314.97,395.12 C314.97,395.12 312.86,393.12 312.75,388.2 L311.28,386.61 C311.28,386.61 311.68,389.61 311.87,390.46 C312.06,391.31 311.87,391.46 311.87,391.46 C310.969188,389.780095 310.553685,387.882634 310.67,385.98 C310.67,385.98 307.84,382.53 307.61,382.68 Z" id="Path" fill="#4285F4" opacity="0.1"></path>
            <path d="M478.25,403.22 C478.25,403.22 484.54,426.22 499.45,418.22 C501.194684,417.950204 502.565051,416.583879 502.84,414.84 C502.84,414.84 501.65,415.2 501.28,412.84 C501.146868,411.983909 500.908392,411.147563 500.57,410.35 C500.119585,409.265678 499.325584,408.359251 498.31,407.77 L498.31,407.77 C498.31,407.77 493.54,402.31 482.31,403.36 C482.31,403.36 479.43,402.3 478.88,402.57 L481.79,405.82 C481.79,405.82 484.1,403.59 486.73,403.82 C486.73,403.82 481.84,405.62 482.21,406.31 C482.28,406.45 483.83,407.97 483.83,407.97 C483.83,407.97 487.83,404.1 491.91,404.61 C491.91,404.61 485.79,405.97 484.41,408.55 L486.89,410.7 C486.89,410.7 490.89,406.41 495.58,406.81 C495.58,406.81 489.24,408.45 487.46,411.13 L490.18,412.92 C490.18,412.92 494.18,408.81 498.07,409.18 C498.07,409.18 490.93,411.81 490.83,413.29 C491.918566,413.94732 493.084025,414.467914 494.3,414.84 C494.3,414.84 497.3,411.96 499.49,412.37 C499.49,412.37 494.91,414.64 495.06,415.17 C495.06,415.17 498.96,416.17 501.22,415.69 C499.167785,416.270299 496.999625,416.304769 494.93,415.79 C495.576528,416.932008 496.542834,417.860079 497.71,418.46 C497.71,418.46 495.35,418.89 493.99,415.52 C493.99,415.52 490.99,414.59 490.68,414.17 C490.68,414.17 491.55,417.69 493.17,419.45 C493.17,419.45 490.43,418.34 489.94,413.72 L487.17,411.97 C487.17,411.97 488.08,416.68 489.41,418.35 C489.41,418.35 486.79,416.79 486.51,411.47 L484.06,409.39 C484.297304,411.549037 484.818469,413.66732 485.61,415.69 C485.61,415.69 483.49,413.69 483.38,408.77 L481.91,407.18 C481.91,407.18 482.31,410.18 482.5,411.03 C482.69,411.88 482.5,412.03 482.5,412.03 C481.599188,410.350095 481.183685,408.452634 481.3,406.55 C481.3,406.55 478.48,403.07 478.25,403.22 Z" id="Path" fill="#4285F4" opacity="0.1"></path>
            <path d="M414.23,634.2 C414.23,634.2 466.11,616.73 455.37,554.83 L389.47,537.72 L374.17,588.51 L414.23,634.2 Z" id="Path" fill="#CED7E7"></path>
            <path d="M374.17,588.51 L414.22,634.2 C414.22,634.2 466.1,616.73 455.36,554.83 L374.17,588.51 Z" id="Path" fill="#000000" opacity="0.1"></path>
            <path d="M156.17,131.21 C156.17,131.21 163.17,142.6 172.74,136.91 C182.31,131.22 173.13,115.5 173.13,115.5 C173.13,115.5 154.8,112.99 156.17,131.21 Z" id="Path" fill="#FED253"></path>
            <path d="M172.74,136.91 C170.458537,138.386213 167.669378,138.8565 165.03,138.21 C161.52,137.32 158.82,134.62 157.37,132.85 C156.937411,132.331429 156.536675,131.787096 156.17,131.22 C155.68,124.72 157.7,120.85 160.5,118.57 L160.5,118.57 C164.35,115.44 169.68,115.31 171.98,115.41 C172.69,115.41 173.1,115.51 173.1,115.51 L173.29,115.83 C173.56,116.34 174.15,117.47 174.78,118.98 C176.92,123.93 179.47,132.9 172.74,136.91 Z" id="Path" fill="#000000" opacity="0.1"></path>
            <path d="M419.33,551.92 L455.33,554.83 L522.33,555.38 L469.54,620.38 C469.54,620.38 452.79,621.29 449.34,623.65 C445.89,626.01 397.45,624.75 397.45,624.75 L389.63,591.43 L419.33,551.92 Z" id="Path" fill="#FFA2A2"></path>
            <path d="M419.33,551.92 L455.33,554.83 L522.33,555.38 L469.54,620.38 C469.54,620.38 452.79,621.29 449.34,623.65 C445.89,626.01 397.45,624.75 397.45,624.75 L389.63,591.43 L419.33,551.92 Z" id="Path" fill="#000000" opacity="0.05"></path>
            <path d="M382.92,377.16 L391.29,391.36 L393.11,416.12 C393.11,416.12 398.94,437.23 403.31,443.42 C407.68,449.61 409.5,466 409.5,466 C409.5,466 411.32,481.29 413.5,484.56 C415.68,487.83 418.6,511.56 418.6,511.56 C418.6,511.56 437.9,550.15 455.37,554.88 C455.37,554.88 368.72,583.28 414.23,634.25 C414.23,634.25 381.83,642.25 374.18,633.16 C366.53,624.07 346.51,489.35 346.51,489.35 L352.7,375.75 L382.92,377.16 Z" id="Path" fill="#CED7E7"></path>
            <path d="M382.92,377.16 L391.29,391.36 L393.11,416.12 C393.11,416.12 398.94,437.23 403.31,443.42 C407.68,449.61 409.5,466 409.5,466 C409.5,466 411.32,481.29 413.5,484.56 C415.68,487.83 418.6,511.56 418.6,511.56 C418.6,511.56 437.9,550.15 455.37,554.88 C455.37,554.88 368.72,583.28 414.23,634.25 C414.23,634.25 381.83,642.25 374.18,633.16 C366.53,624.07 346.51,489.35 346.51,489.35 L352.7,375.75 L382.92,377.16 Z" id="Path" fill="#000000" opacity="0.05"></path>
            <path d="M277.79,238.77 C275.358463,251.383518 276.079822,264.402329 279.89,276.67 L266.41,315.26 C266.41,315.26 163.74,258.1 172.48,244.26 C177.43,236.41 178.06,215.64 177.66,199.14 C177.37,186.6 176.48,176.54 176.48,176.54 C176.48,176.54 302.48,188.93 285.71,217.69 C281.91493,224.226784 279.238115,231.351438 277.79,238.77 Z" id="Path" fill="#FFA2A2"></path>
            <path d="M285.71,217.69 C281.91493,224.226784 279.238115,231.351438 277.79,238.77 C239.234204,251.104492 197.331145,234.51987 177.66,199.14 C177.37,186.6 176.48,176.54 176.48,176.54 C176.48,176.54 302.45,188.93 285.71,217.69 Z" id="Path" fill="#000000" opacity="0.1"></path>
            <path d="M336.680411,155.79 C336.703848,192.428883 313.204733,224.943742 278.408807,236.417704 C243.612881,247.891666 205.382386,235.732155 183.607934,206.265538 C161.833483,176.79892 161.435077,136.683266 182.62,106.79 C183.82,105.103333 185.083333,103.456667 186.41,101.85 C193.969308,92.6622178 203.376171,85.1667095 214.02,79.85 L214.02,79.85 C219.794668,76.9609574 225.885525,74.7528119 232.17,73.27 C255.107864,67.8359146 279.272292,72.1713678 298.890385,85.2406168 C318.508479,98.3098659 331.818256,118.939107 335.64,142.2 C336.346325,146.695274 336.694088,151.239595 336.680411,155.79 Z" id="Path" fill="#FFA2A2"></path>
            <path d="M370.17,504.6 C368.9,511.38 370.49,523.77 372.9,536.38 C373,536.93 373.11,537.48 373.22,538.03 C373.33,538.58 373.49,539.43 373.63,540.12 C374.74,545.54 375.95,550.91 377.13,555.79 C378.31,560.67 379.37,564.85 380.27,568.29 C381.63,573.44 382.56,576.68 382.56,576.68 C382.56,576.68 382.68,579.86 382.84,584.92 C382.93,587.84 383.03,591.4 383.13,595.33 C383.13,596.47 383.2,597.63 383.23,598.83 C383.28,600.92 383.33,603.09 383.38,605.31 C383.38,606.03 383.38,606.75 383.43,607.48 C383.43,609.87 383.52,612.31 383.56,614.74 C383.61,618.08 383.65,621.42 383.67,624.66 C383.67,625.9 383.67,627.12 383.67,628.32 C383.67,631.42 383.67,634.39 383.67,637.12 C383.56,644.87 383.25,650.72 382.59,652.41 C382.36,652.99 382.15,653.62 381.95,654.28 C381.082896,657.384139 380.454397,660.550033 380.07,663.75 L378.37,662.36 C375.12,659.68 371.9,656.94 368.63,654.28 C363.194729,649.727028 357.425168,645.588722 351.37,641.9 C350.96,641.66 350.55,641.42 350.13,641.19 C349.01,640.54 347.87,639.93 346.71,639.35 C344.320303,638.14529 341.870422,637.063871 339.37,636.11 C327.82,631.71 315.45,630.11 302.91,630.38 C297.91,632.29 294.66,633.66 294.66,633.66 L288.3,635.58 L287.24,635.9 C280.35,638 270.66,640.98 267.17,642.22 C261.53,644.22 212.56,654.41 212.56,654.41 C208.086247,655.63116 203.516267,656.46754 198.9,656.91 C190.494505,659.27432 181.938155,661.065106 173.29,662.27 C153.637508,664.782427 133.677168,663.174974 114.68,657.55 C114.112972,657.583766 113.544064,657.567033 112.98,657.5 C113.33,657.5 113.67,657.42 113.98,657.36 L112.76,657 L111.09,656.48 C108.29,655.6 105.513333,654.636667 102.76,653.59 L101.09,652.95 C98.4233333,651.923333 95.8133333,650.82 93.26,649.64 L91.59,648.88 C88.9233333,647.64 86.3133333,646.33 83.76,644.95 C82.84,644.47 81.93,643.95 81.03,643.46 C78.31,641.94 75.6433333,640.346667 73.03,638.68 C72.59,634.91 72.36,632.39 72.36,632.39 L68.46,612.97 L68.26,611.97 L65.46,597.97 L65.26,596.97 L59.17,566.51 L58.97,565.51 L56.17,551.51 L55.97,550.51 L49.8,520.07 L49.6,519.07 L46.8,505.07 L46.6,504.07 L40.48,473.57 L40.28,472.57 L37.48,458.62 L37.28,457.62 L36.17,452.12 L34.5,443.79 C34.5,443.79 29.17,436.17 23.17,427.16 L22.5,426.16 C20.79,423.63 19.03,421 17.32,418.42 C16.75,417.57 16.2,416.73 15.65,415.9 C14.8166667,414.64 14.01,413.41 13.23,412.21 L12.69,411.38 L12.58,411.21 C3.96,397.87 9.73,392.07 9.73,392.07 C9.73,392.07 13.35,387.17 18.02,380.69 C18.25,380.36 18.49,380.03 18.74,379.69 C20.74,376.89 22.94,373.83 25.1,370.77 L26.77,368.39 C27.4,367.5 28.02,366.61 28.62,365.73 C28.86,365.4 29.09,365.06 29.31,364.73 C33.92,358.07 37.72,352.26 38.5,350.2 C39.72,346.95 47.5,337.34 55.25,328.91 C61.36,322.25 67.44,316.33 70.17,314.91 C76.36,311.64 78.91,301.07 78.91,301.07 C78.91,301.07 92.38,296.35 94.2,292.71 C96.02,289.07 121.51,272.71 121.51,272.71 C121.51,272.71 131.82,266.07 135.99,262.07 C136.580301,261.546936 137.095206,260.944531 137.52,260.28 C138.97,257.68 148.44,255.54 152.29,254.77 C153.29,254.57 153.91,254.46 153.91,254.46 C155.464276,251.635689 157.429001,249.057619 159.74,246.81 C161.31,245.42 163.27,240.63 164.92,235.99 C166.71,230.93 168.1,226.06 168.1,226.06 C171.02,216.23 176.84,219.14 176.84,219.14 C176.832072,220.482709 176.959381,221.822803 177.22,223.14 L177.22,223.14 C179.65,235.14 192.85,240.14 199.78,245.75 C207.43,251.93 219.44,267.96 228.91,271.23 C236.75,273.94 245.84,284.16 248.72,287.57 L248.94,287.83 C249.42,288.39 249.66,288.71 249.66,288.71 C249.66,288.71 255.03,288.43 258.3,288.37 L259.49,288.37 C260.155149,288.303259 260.787001,288.046353 261.31,287.63 C264.56,285.42 269.4,278.94 271.51,277.45 C274.05,275.62 276.61,246.13 276.61,246.13 L276.74,246.07 C285.81,241.82 295.54,284.36 295.54,284.36 C295.54,284.36 312.65,289.46 314.11,293.1 C314.39,293.82 315.68,295.1 317.62,296.65 C326.453357,303.400684 335.855207,309.373034 345.72,314.5 C345.94,314.61 346.15,314.72 346.37,314.81 C346.568305,314.916906 346.7719,315.013697 346.98,315.1 C347.35,315.28 347.71,315.44 348.05,315.59 C348.59,315.83 349.09,316.03 349.55,316.19 L350.15,316.4 C351.583266,316.876843 352.932968,317.575313 354.15,318.47 C354.51,318.73 354.87,319 355.22,319.29 C356.581772,320.423328 357.833951,321.682203 358.96,323.05 C359.13,323.25 359.29,323.46 359.45,323.66 L359.45,323.66 C360.21,324.61 360.89,325.55 361.45,326.42 C362.369066,327.762167 363.207222,329.157981 363.96,330.6 C363.96,330.6 378.88,356.09 383.62,358.99 C388.36,361.89 391.27,391.4 391.27,391.4 L391.27,391.4 L375.27,450.71 C375.27,450.71 374.52,465.71 373.12,481.01 C372.34,489.59 371.35,498.32 370.17,504.6 Z" id="Path" fill="#CED7E7"></path>
            <path d="M249.66,290.51 C249.66,290.51 238.93,296.33 230.55,296.88 C229.453033,296.931188 228.35372,296.867508 227.27,296.69 C218.49,295.36 205.61,288.14 205.61,288.14 L220.72,271.57 L239.1,280.68 L245.86,286.97 L249.66,290.51 Z" id="Path" fill="#63667E"></path>
            <path d="M335.6,142.2 C335.219804,142.737691 334.787731,143.236752 334.31,143.69 C329.05,148.69 319.71,146.62 312.54,145.46 C306.30959,144.441416 300.223145,142.682289 294.41,140.22 C289.35,138.06 283.28,135.42 278.73,138.52 C276.98,139.7 275.78,141.59 273.96,142.63 C272.14,143.67 269.82,143.74 267.67,143.77 C260.67,143.77 253.67,143.85 246.84,142.27 C236.65,139.89 226.11,133.9 216.42,137.85 C208.84,140.93 204.73,149.18 202.68,157.11 C201.68,161 200.94,165.11 198.68,168.41 C196.42,171.71 192.05,174.05 188.33,172.5 C182.84,170.21 182.03,160.89 175.41,160.42 C168.14,159.91 168.23,167.42 170.35,172.85 C173.49,180.85 177.6,188.85 177.78,197.19 C161.833594,168.628757 163.716429,133.446207 182.62,106.75 C184.231894,105.751798 185.493477,104.277038 186.23,102.53 C186.304074,102.293739 186.364178,102.053324 186.41,101.81 C186.96,99.02 185.41,96.09 185.32,93.17 C184.97,86.04 192.69,81.07 199.77,80.17 C204.48,79.57 209.3,80.03 214.02,79.88 L214.02,79.88 C216.397476,79.8276329 218.76186,79.5123817 221.07,78.94 C225.051979,77.7468115 228.780634,75.8316388 232.07,73.29 C255.007864,67.8559146 279.172292,72.1913678 298.790385,85.2606168 C318.408479,98.3298659 331.718256,118.959107 335.54,142.22 L335.6,142.2 Z" id="Path" fill="#000000" opacity="0.1"></path>
            <path d="M337.31,136.31 C336.811482,138.287963 335.772796,140.088351 334.31,141.51 C329.05,146.51 319.71,144.43 312.54,143.27 C306.309196,142.273615 300.221698,140.527615 294.41,138.07 C289.35,135.92 283.28,133.28 278.73,136.38 C276.98,137.56 275.78,139.45 273.96,140.49 C272.14,141.53 269.82,141.6 267.67,141.62 C260.67,141.67 253.67,141.71 246.84,140.13 C236.65,137.74 226.11,131.76 216.42,135.7 C208.84,138.78 204.73,147.04 202.68,154.97 C201.68,158.86 200.94,162.97 198.68,166.26 C196.42,169.55 192.05,171.91 188.33,170.36 C182.84,168.07 182.03,158.75 175.41,158.28 C168.14,157.77 168.23,165.28 170.35,170.71 C174.07,180.18 179.13,189.6 177.47,199.64 C175.82,199.64 173.09,199.58 171.47,199.54 C172.73,197.39 170.33,194.83 167.94,194.1 C165.55,193.37 162.76,193.38 160.94,191.64 C159.12,189.9 159.11,187.21 159.3,184.8 C159.714797,179.649012 160.974989,174.601484 163.03,169.86 C164.34,166.86 166.03,163.61 165.03,160.47 C164.429756,159.046709 163.707041,157.678234 162.87,156.38 C160.79,152.38 161.28,147.38 163.06,143.25 C163.82,141.49 164.37,139.83 165,138.25 C165.795603,136.004076 166.946947,133.900594 168.41,132.02 C170.7,129.17 172.94,124.88 170.41,122.23 C169.77,121.56 171.05,121.1 170.64,120.23 C170.567544,120.081408 170.517018,119.923094 170.49,119.76 C170.372446,118.706612 170.627162,117.645294 171.21,116.76 C171.328091,116.529944 171.458273,116.306298 171.6,116.09 C171.715015,115.861483 171.845311,115.640982 171.99,115.43 C174.204347,111.732849 177.147292,108.524529 180.64,106 C182.81,104.43 185.35,102.92 186.21,100.38 C187.21,97.38 185.45,94.19 185.3,91.02 C184.95,83.89 192.67,78.92 199.75,78.02 C206.83,77.12 214.17,78.61 221.07,76.78 C230.86,74.2 237.74,65.56 246.63,60.71 C256.48538,55.4403311 268.222579,55.0195636 278.43,59.57 C288.81,64.31 296.64,73.89 307.48,77.49 C311.32,78.77 315.48,79.28 318.94,81.4 C322.94,83.86 325.37,88.16 327.45,92.4 C330.62,98.83 331.26,105.29 333.45,112.1 C335.19,117.5 337.6,124.56 337.8,130.78 C337.912426,132.637442 337.747277,134.501266 337.31,136.31 L337.31,136.31 Z" id="Path" fill="#896363"></path>
            <g id="Group" opacity="0.1" transform="translate(159.000000, 89.000000)" fill="#000000">
                <path d="M12.71,34.78 C13.0340721,33.4839556 12.7587237,32.1108848 11.96,31.04 C12.22,31.82 11.09,32.27 11.71,32.92 C12.2039326,33.4392265 12.5493026,34.0816148 12.71,34.78 L12.71,34.78 Z" id="Path"></path>
                <path d="M11.93,28.75 L11.93,28.75 C11.8121469,29.0990232 11.7415203,29.4622454 11.72,29.83 C11.91,29.51 12.17,29.18 11.93,28.75 Z" id="Path"></path>
                <path d="M175.59,50.07 C170.32,55.07 160.99,53 153.8,51.83 C147.573583,50.8275087 141.492246,49.0712747 135.69,46.6 C130.62,44.44 124.56,41.8 120,44.9 C118.26,46.08 117.06,47.97 115.23,49.01 C113.4,50.05 111.09,50.12 108.94,50.14 C101.94,50.14 94.94,50.23 88.1,48.64 C77.92,46.26 67.38,40.29 57.69,44.22 C50.11,47.31 46,55.56 43.95,63.49 C42.95,67.38 42.22,71.49 39.95,74.79 C37.68,78.09 33.31,80.43 29.6,78.89 C24.11,76.59 23.3,67.28 16.68,66.81 C11.51,66.44 10.07,70.14 10.42,74.25 C10.72,71.11 12.42,68.69 16.68,68.99 C23.3,69.46 24.11,78.78 29.6,81.07 C33.31,82.62 37.69,80.29 39.95,76.97 C42.21,73.65 42.95,69.56 43.95,65.68 C46,57.75 50.11,49.49 57.69,46.41 C67.38,42.47 77.92,48.41 88.1,50.83 C94.9,52.42 101.96,52.37 108.94,52.32 C111.09,52.32 113.36,52.26 115.23,51.2 C117.1,50.14 118.23,48.27 120,47.08 C124.56,43.99 130.62,46.63 135.69,48.78 C141.493489,51.2499662 147.574256,53.0093929 153.8,54.02 C160.99,55.18 170.32,57.27 175.59,52.25 C178.45,49.52 179.31,45.57 179.12,41.25 C178.96,44.68 177.96,47.79 175.59,50.07 Z" id="Path"></path>
                <path d="M26.65,0.21 C26.5946751,0.7079612 26.5746252,1.20921081 26.59,1.71 C26.69,3.79 27.48,5.87 27.73,7.9 C28.1,5.41 26.95,2.81 26.65,0.21 Z" id="Path"></path>
                <path d="M6.33,71.16 C6.41244584,71.4590265 6.47590573,71.762966 6.52,72.07 C6.68211719,71.0384382 6.61727683,69.9839291 6.33,68.98 C5.73381234,67.5516048 5.01092617,66.1794598 4.17,64.88 C3.41870518,63.400734 2.97317261,61.7852533 2.86,60.13 C2.65667942,62.5194566 3.10963389,64.9190779 4.17,67.07 C5.01284323,68.3648319 5.73583772,69.7338354 6.33,71.16 L6.33,71.16 Z" id="Path"></path>
                <path d="M18.74,108.14 L12.89,108.05 C13.1664463,108.76597 13.1001353,109.569069 12.71,110.23 C14.36,110.23 17.1,110.29 18.71,110.33 C18.9897286,108.618464 19.0869402,106.882064 19,105.15 C18.9772676,106.151196 18.8904231,107.149908 18.74,108.14 Z" id="Path"></path>
                <path d="M9.17,102.61 C6.78,101.89 4,101.88 2.22,100.13 C1.17217061,98.9837803 0.581486813,97.4928375 0.56,95.94 C0.41,98.24 0.56,100.72 2.22,102.32 C4,104.07 6.78,104.08 9.17,104.8 C10.741651,105.257159 12.0550106,106.34258 12.8,107.8 C13.81,105.73 11.49,103.3 9.17,102.61 Z" id="Path"></path>
            </g>
            <path d="M350.1,641.19 C348.98,640.54 347.84,639.93 346.68,639.35 C344.290303,638.14529 341.840422,637.063871 339.34,636.11 C327.79,631.71 315.42,630.11 302.88,630.38 C297.88,632.29 294.63,633.66 294.63,633.66 L288.27,635.58 L287.21,635.9 C287.14,635.2 287.06,634.5 286.99,633.79 C286.92,633.08 286.84,632.4 286.76,631.7 C284.52,610.49 282.76,588.7 282.76,588.7 L282.76,569.88 L282.76,567.69 L282.64,512.24 L281.64,493.96 L281.17,485.87 L281.08,484.33 L280.9,481.17 L280.8,479.29 C280.579276,478.69434 280.392313,478.086709 280.24,477.47 L280.24,477.47 C280.17,477.22 280.1,476.94 280.04,476.65 C279.79,475.65 279.52,474.36 279.24,472.96 C277.41,463.76 275.12,448.25 274.98,445.1 C274.8,440.9 271.16,415.78 271.16,415.78 C270.79,401.95 259.16,375.91 256.23,371 C253.3,366.09 250.03,336.59 251.13,335 C251.7,334.15 252.07,329.12 252.3,324.48 C252.3,323.95 252.35,323.43 252.37,322.92 C252.52,319.29 252.59,316.26 252.59,316.26 L264.03,314 L267.1,313.4 L267.34,313.35 L267.44,313.55 C267.77,314.16 268.8,316.11 270.01,318.67 C270.15,318.94 270.28,319.23 270.42,319.52 C270.48,319.66 270.55,319.8 270.62,319.94 C272.86,324.84 275.45,331.29 275.34,335 C275.16,341.56 282.63,357.4 282.63,357.4 C283.35,361.04 299.19,397.26 299.19,397.26 C299.19,397.26 312.12,432.76 311.39,438.59 C310.66,444.42 317.58,483.01 317.58,483.01 L324.68,522.7 C328.13,530.52 332.68,548.54 332.68,548.54 L334.41,558.76 L334.74,560.71 L339.35,587.98 L341.61,601.34 C341.61,601.34 342.56,608.44 344,616.34 C344.12,617.05 344.26,617.77 344.4,618.49 C345.287155,623.690408 346.54707,628.8203 348.17,633.84 C348.974786,636.244737 349.619529,638.700103 350.1,641.19 L350.1,641.19 Z" id="Path" fill="#000000" opacity="0.1"></path>
            <path d="M351.34,641.9 C350.93,641.66 350.52,641.42 350.1,641.19 C348.98,640.54 347.84,639.93 346.68,639.35 C344.290303,638.14529 341.840422,637.063871 339.34,636.11 C327.79,631.71 315.42,630.11 302.88,630.38 C297.88,632.29 294.63,633.66 294.63,633.66 L288.27,635.58 C288.19,634.88 288.12,634.18 288.04,633.47 C287.96,632.76 287.9,632.19 287.84,631.55 C285.6,610.39 283.84,588.7 283.84,588.7 L283.84,569.7 L283.84,567.51 L283.72,512.2 L282.72,494.74 L282.52,491.12 L282.38,488.67 L282.2,485.43 L282.02,482.14 L281.89,479.77 L281.89,479.25 C281.89,479.2 281.89,479.14 281.82,479.08 C281.63,478.54 281.4,477.72 281.15,476.68 L281.03,476.18 C280.98,475.95 280.92,475.7 280.87,475.45 C278.99,466.92 276.23,448.53 276.08,445.08 C275.9,440.88 272.26,415.76 272.26,415.76 C271.89,401.93 260.26,375.89 257.33,370.98 C254.4,366.07 251.14,336.57 252.23,334.98 C252.86,333.98 253.23,327.91 253.47,322.9 C253.47,322.5 253.47,322.11 253.47,321.74 C253.6,318.65 253.65,316.24 253.65,316.24 L264.29,314.14 L266.99,313.61 L267.41,313.53 L268.41,313.33 C268.41,313.33 269.72,315.75 271.29,319.08 L271.49,319.5 C273.78,324.44 276.49,331.16 276.41,334.98 C276.23,341.54 283.7,357.38 283.7,357.38 C284.42,361.02 300.26,397.24 300.26,397.24 C300.26,397.24 313.19,432.74 312.46,438.57 C311.73,444.4 318.65,482.99 318.65,482.99 L325.75,522.68 C329.2,530.5 333.75,548.52 333.75,548.52 L335.36,558.04 L335.69,559.97 L339.32,581.49 L342.67,601.32 C342.67,601.32 343.67,608.39 345.05,616.32 C345.18,617.04 345.31,617.76 345.45,618.49 C346.335803,623.713644 347.595713,628.866906 349.22,633.91 C350.106523,636.522332 350.814816,639.191793 351.34,641.9 L351.34,641.9 Z" id="Path" fill="#63667E"></path>
            <path d="M342.32,128.31 C342.32,128.31 338.5,133.23 335.05,133.23 C331.6,133.23 318.17,132.68 311.17,130.5 C304.17,128.32 269.85,126.67 269.85,126.67 C269.85,126.67 221.25,126.85 219.61,125.21 C217.97,123.57 189.39,114.83 186.48,115.38 C185.87,115.5 184.38,115.76 182.39,116.09 L180.11,116.46 C176.66,117.01 172.35,117.65 168.41,118.12 C163.54,118.69 159.26,118.98 157.9,118.48 L157.9,114.29 C157.9,114.29 163.54,106.09 163.9,103.74 C164.26,101.39 169,67.32 181.38,55.13 C186.494463,45.3530956 194.771265,37.5980001 204.86,33.13 C221.61,25.84 238.36,19.66 238.36,19.66 L241.29,19.24 L250.74,17.84 C251.027265,17.5540378 251.338392,17.2930925 251.67,17.06 C254.29,15.06 262.23,10.71 272.58,20.06 L274.41,22.98 C274.41,22.98 306.26,30.44 321,56.47 C335.74,82.5 336.48,107.99 337.57,119.64 C337.57,119.64 336.84,122.92 338.3,124.19 C338.828566,124.656913 339.332575,125.150909 339.81,125.67 C339.94,125.8 340.07,125.93 340.19,126.07 C340.61,126.49 341,126.93 341.32,127.29 C341.358186,127.318099 341.391901,127.351814 341.42,127.39 C341.498086,127.484721 341.581557,127.57487 341.67,127.66 L342.32,128.31 Z" id="Path" fill="#FED253"></path>
            <path d="M342.32,128.31 C342.32,128.31 338.5,133.23 335.05,133.23 C331.6,133.23 318.17,132.68 311.17,130.5 C304.17,128.32 269.85,126.67 269.85,126.67 C269.85,126.67 221.25,126.85 219.61,125.21 C217.97,123.57 189.39,114.83 186.48,115.38 C185.87,115.5 184.38,115.76 182.39,116.09 L181.87,112.89 L181.74,112.1 C181.74,112.1 236.9,100.27 273.67,106.47 C310.44,112.67 337.57,119.57 337.57,119.57 C337.57,119.57 336.84,122.85 338.3,124.12 C338.828566,124.586913 339.332575,125.080909 339.81,125.6 C339.94,125.73 340.07,125.86 340.19,126 C340.61,126.42 341,126.86 341.32,127.22 C341.358186,127.248099 341.391901,127.281814 341.42,127.32 C341.498278,127.414552 341.581739,127.504691 341.67,127.59 L342.32,128.31 Z" id="Path" fill="#000000" opacity="0.05"></path>
            <path d="M337.31,136.31 C330.5,136.84 317.95,135.18 312.46,134.37 C310.9,134.14 309.37,133.86 307.83,133.52 C301.94,132.24 283.83,128.65 272.83,130.31 C259.54,132.31 222.04,128.67 222.04,128.67 C222.04,128.67 198.92,123.94 189.63,120.12 C186.22,118.71 180.52,118.27 174.85,118.97 C173.404044,119.150352 171.968689,119.407381 170.55,119.74 C162.81,121.57 156.28,125.74 157.41,132.85 C156.977411,132.331429 156.576675,131.787096 156.21,131.22 C155.72,124.72 157.74,120.85 160.54,118.57 L160.54,118.57 L161.2,118.3 C164.620452,117.328081 168.101361,116.583127 171.62,116.07 C172.17,115.98 172.74,115.9 173.32,115.83 C183.27,114.49 197.66,114.19 209.8,120.3 C209.8,120.3 221.08,125.59 228.73,125.59 C236.38,125.59 298.63,126.14 313.2,130.32 C316.100534,131.157982 319.058404,131.782978 322.05,132.19 C327.361932,132.874839 332.759743,132.365805 337.85,130.7 C337.95414,132.586536 337.772077,134.477966 337.31,136.31 L337.31,136.31 Z" id="Path" fill="#000000" opacity="0.1"></path>
            <path d="M342.32,128.31 C342.32,128.31 338.5,133.23 335.05,133.23 C331.6,133.23 318.17,132.68 311.17,130.5 C304.17,128.32 269.85,126.67 269.85,126.67 C269.85,126.67 221.25,126.85 219.61,125.21 C217.97,123.57 189.39,114.83 186.48,115.38 C185.87,115.5 184.38,115.76 182.39,116.09 L180.11,116.46 C176.149913,116.439761 172.20817,116.999017 168.41,118.12 C163.54,118.69 159.26,118.98 157.9,118.48 L157.9,117.65 C158.94853,117.041501 160.041659,116.513322 161.17,116.07 C167.918062,114.180363 174.866798,113.099449 181.87,112.85 C190.6,112.53 200.81,113.55 209.78,118.07 C209.78,118.07 221.06,123.36 228.71,123.36 C236.36,123.36 298.61,123.9 313.18,128.09 C316.081899,128.920136 319.03944,129.541721 322.03,129.95 C328.59209,130.776919 335.255756,129.820032 341.32,127.18 C341.358186,127.208099 341.391901,127.241814 341.42,127.28 C341.498278,127.374552 341.581739,127.464691 341.67,127.55 L342.32,128.31 Z" id="Path" fill="#000000" opacity="0.1"></path>
            <path d="M157.55,132.68 C157.55,132.68 145.35,123.39 161.19,117.2 C161.19,117.2 188.86,108.65 209.8,119.2 C209.8,119.2 221.08,124.47 228.73,124.47 C236.38,124.47 298.63,125.02 313.2,129.21 C316.101635,130.041202 319.059252,130.662803 322.05,131.07 C329.801527,132.009875 337.653566,130.517743 344.52,126.8 C345.52,126.25 346.42,125.97 346.69,126.29 C347.6,127.39 346.88,133.76 338.87,135.03 C332.62,136.03 318.42,134.14 312.45,133.27 C310.9,133.04 309.36,132.75 307.83,132.42 C301.94,131.14 283.83,127.55 272.78,129.21 C259.5,131.21 221.99,127.57 221.99,127.57 C221.99,127.57 198.88,122.84 189.59,119.01 C180.3,115.18 154.09,118.48 157.55,132.68 Z" id="Path" fill="#FED253"></path>
            <path d="M260.4,35.07 C259.4,33.63 246.55,23.34 241.31,19.18 L250.76,17.78 C251.047265,17.4940378 251.358392,17.2330925 251.69,17 C258.56,24.21 260.4,35.07 260.4,35.07 Z" id="Path" fill="#000000" opacity="0.1"></path>
            <polygon id="Path" fill="#000000" opacity="0.1" points="218.72 90.26 214.53 96.45 230.55 95.91 230.91 88.99"></polygon>
            <polygon id="Path" fill="#000000" opacity="0.1" points="316.47 97.73 318.29 103.37 328.49 105.01 324.12 98.27"></polygon>
            <path d="M141.35,287.07 C142.44,288.89 178.3,336.07 187.77,334.76 C197.24,333.45 141.35,287.07 141.35,287.07 Z" id="Path" fill="#000000" opacity="0.1"></path>
            <path d="M261.5,330.19 C261.5,330.19 270.24,338.57 268.96,341.84 C267.68,345.11 261.5,330.19 261.5,330.19 Z" id="Path" fill="#000000" opacity="0.1"></path>
            <path d="M166.11,387.72 C166.11,387.72 158.46,423.58 162.47,424.72 C166.48,425.86 166.11,387.72 166.11,387.72 Z" id="Path" fill="#000000" opacity="0.1"></path>
            <path d="M264.41,526.98 C265.68,530.62 276.24,554.29 278.61,555.56 C280.98,556.83 264.41,526.98 264.41,526.98 Z" id="Path" fill="#000000" opacity="0.1"></path>
            <path d="M387.11,429.77 C386.74,431.04 377.64,438.51 379.64,441.24 C381.64,443.97 387.11,429.77 387.11,429.77 Z" id="Path" fill="#000000" opacity="0.1"></path>
            <path d="M316.47,496.21 C316.29,497.13 314.47,516.21 317.93,519.88 C321.39,523.55 316.47,496.21 316.47,496.21 Z" id="Path" fill="#000000" opacity="0.1"></path>
            <path d="M409.75,595.33 C407.11,596.8 404.38,598.22 401.6,599.58 C398.6,601.04 395.6,602.43 392.54,603.74 C391.32,604.27 390.1,604.79 388.89,605.29 C387.05,606.05 385.23,606.78 383.43,607.48 C377.96,609.62 372.69,611.48 368,613.05 C366.18,613.66 364.44,614.22 362.82,614.74 C354.66,617.33 349.24,618.74 349.24,618.74 C348.001896,618.474957 346.734769,618.370763 345.47,618.43 C345.12,618.43 344.76,618.43 344.39,618.43 C342.696426,618.552802 341.010666,618.766443 339.34,619.07 C328.17,621.07 312.39,626.68 302.88,630.35 C297.88,632.26 294.63,633.63 294.63,633.63 L288.27,635.55 L287.21,635.87 C280.32,637.97 270.63,640.95 267.14,642.19 C261.5,644.19 212.53,654.38 212.53,654.38 C208.056247,655.60116 203.486267,656.43754 198.87,656.88 C187.494676,657.922752 176.061065,658.184331 164.65,657.66 C153.19,658.4 134.65,655.88 123.86,654.18 L122.14,653.91 C117.97,653.23 115.32,652.74 115.32,652.74 L116.72,650.81 L145.43,611.2 L145.6,610.96 L172.35,574.07 L173.35,572.73 L175.78,569.38 C175.78,569.38 177.24,567.38 182.86,567.25 C183.52,567.25 184.24,567.25 185.03,567.25 C189.750691,567.629493 194.407984,568.579756 198.9,570.08 L200.2,570.47 C219.57,576.02 249.51,574.63 249.51,574.63 C249.51,574.63 268.14,571.63 282.78,569.83 L283.87,569.69 C288.654011,569.014053 293.471016,568.59678 298.3,568.44 C307.22,568.62 326.52,563.89 326.52,563.89 C330.67,563 332.42,562.25 334.76,560.58 C335.07,560.36 335.4,560.12 335.76,559.86 C336.76,559.11 337.91,558.19 339.39,557.05 C342.09,554.98 345.88,552.17 351.84,548.23 C352.36,547.89 352.91,547.55 353.5,547.23 C354.09,546.91 354.84,546.48 355.56,546.12 C361.331926,543.386568 367.417374,541.371519 373.68,540.12 C378.87499,539.003237 384.146456,538.277867 389.45,537.95 L390.24,537.95 C405.24,537.15 420.56,539.72 429.52,548.15 C431.086696,549.631455 432.451736,551.312538 433.58,553.15 C434.127559,554.022641 434.615343,554.93139 435.04,555.87 C435.857357,557.660587 436.464731,559.539756 436.85,561.47 C436.923333,561.83 436.983333,562.19 437.03,562.55 C437.03,562.66 437.03,562.76 437.03,562.87 C437.03,563.16 437.09,563.45 437.11,563.74 C437.91,575.71 425.49,586.53 409.75,595.33 Z" id="Path" fill="#000000" opacity="0.1"></path>
            <path d="M115.32,650.59 C115.32,650.59 147.72,656.59 164.65,655.5 C164.65,655.5 195.78,657.14 212.53,652.23 C212.53,652.23 261.53,642.03 267.14,640.03 C272.75,638.03 294.63,631.47 294.63,631.47 C294.63,631.47 337.23,613.63 349.24,616.54 C349.24,616.54 443.54,592.15 436.8,559.2 C430.06,526.25 370.54,533.72 351.8,546.09 C333.06,558.46 335.8,559.75 326.5,561.75 C326.5,561.75 307.2,566.48 298.28,566.3 C289.36,566.12 249.49,572.49 249.49,572.49 C249.49,572.49 218.18,573.95 198.89,567.94 C179.6,561.93 175.77,567.21 175.77,567.21 L115.32,650.59 Z" id="Path" fill="#FFA2A2"></path>
            <path d="M185.58,565.07 C185.583687,565.109849 185.583687,565.150151 185.58,565.19 C185.510198,565.933256 185.317584,566.659784 185.01,567.34 C181.17,576.76 159.37,602.17 159.37,602.17 C158.376126,605.188523 157.176652,608.13542 155.78,610.99 C152.776168,617.09191 149.316354,622.958552 145.43,628.54 C139.669267,636.890432 133.379732,644.863412 126.6,652.41 L126.55,652.41 C125.687273,653.050033 124.789185,653.640968 123.86,654.18 C121.51,655.58 117.98,657.31 114.65,657.52 C114.082972,657.553766 113.514064,657.536941 112.95,657.47 C113.3,657.47 113.64,657.39 113.95,657.33 L112.73,656.97 L111.06,656.45 C108.26,655.57 105.483333,654.606667 102.73,653.56 L101.06,652.92 C98.3933333,651.893333 95.7833333,650.79 93.23,649.61 L91.56,648.85 C88.8933333,647.61 86.2833333,646.3 83.73,644.92 C82.81,644.44 81.9,643.92 81,643.43 C78.28,641.91 75.6133333,640.316667 73,638.65 C70.2266667,636.883333 67.5133333,635.04 64.86,633.12 C62.86,629.41 61.21,626.12 60.31,624.35 C58.67,621.06 58.53,616.35 58.73,612.94 C58.73,612.59 58.73,612.26 58.79,611.94 C58.96,609.8 59.22,608.33 59.22,608.33 C57.7382384,606.34897 56.4014303,604.26355 55.22,602.09 C54.5412434,601.0109 54.1552407,599.773623 54.1,598.5 C54.1452281,597.989037 54.0978002,597.474105 53.96,596.98 C53.19,593.82 49.88,588.39 46.82,584.98 C44.54,582.47 44.4,573.09 44.62,566.44 C44.75,562.44 45,559.5 45,559.5 C44.5518968,559.210807 44.2165656,558.776641 44.05,558.27 C43.2459094,556.081373 42.7021702,553.805723 42.43,551.49 C42.43,551.16 42.34,550.83 42.29,550.49 C41.65,545.9 41.36,541.29 41.36,541.29 C33.96,535.9 30.44,527.49 28.8,519.99 L28.59,518.99 C27.6893269,514.380417 27.3069508,509.684571 27.45,504.99 C27.45,504.54 27.45,504.2 27.45,503.99 C27.45,503.78 27.45,503.74 27.45,503.74 C27.45,503.74 28.43,482.07 31.17,473.61 C31.28,473.25 31.4,472.92 31.52,472.61 C31.7218671,472.078703 31.9835514,471.572109 32.3,471.1 C33.3,469.77 34.01,467.26 34.6,464.29 C35.01,462.23 35.35,459.94 35.6,457.66 C35.83,455.76 36.01,453.87 36.15,452.12 C36.54,447.44 36.66,443.79 36.66,443.79 L34.81,434.67 C34.3,432.18 33.91,429.67 33.64,427.16 C33.64,426.83 33.56,426.5 33.52,426.16 C33.0523054,421.524839 32.9686872,416.858942 33.27,412.21 C33.27,411.87 33.27,411.54 33.33,411.21 C34.1108133,400.62116 36.8790687,390.274127 41.49,380.71 L41.99,379.71 C42.6566667,378.376667 43.3566667,377.066667 44.09,375.78 C44.62,374.83 45.18,373.89 45.76,372.96 C47.2975648,370.469658 48.9665923,368.06292 50.76,365.75 C51.02,365.41 51.29,365.08 51.56,364.75 C54.6803756,360.88148 58.1481641,357.306579 61.92,354.07 C72.02,345.39 81.29,341.62 89.71,341.33 C126.53,340.03 147.18,405.15 150.52,416.56 C150.84,417.66 151,418.26 151,418.26 C151,418.26 165.92,433.19 161.55,439.74 C160.702703,441.181813 160.186901,442.79412 160.04,444.46 C158.84,453.27 162.28,467.78 162.28,467.78 C162.28,467.78 163.5,471.78 167.06,481.36 L168.11,484.16 C170.34,490.16 170.86,500.23 169.58,509.25 C168.35,517.89 165.46,525.53 160.83,527.49 C151.36,531.49 153.91,535.49 156.09,538.78 C157.385428,541.138344 158.466437,543.608265 159.32,546.16 C160.69,549.85 161.96,553.73 162.44,555.24 C162.58,555.66 162.65,555.89 162.65,555.89 C163.976442,555.376554 165.354419,555.007753 166.76,554.79 C168.55,554.54 170.32,554.72 170.66,556.25 C170.84,557.07 171.87,558.04 173.32,559.01 C177.62,561.97 185.58,565.07 185.58,565.07 Z" id="Path" fill="#000000" opacity="0.1"></path>
            <path d="M183.4,565.07 L183.4,565.07 C183.338837,565.830809 183.14597,566.575209 182.83,567.27 C179.01,576.7 157.19,602.17 157.19,602.17 C156.191781,605.186923 154.992425,608.13353 153.6,610.99 C151.186796,615.917635 148.457779,620.684227 145.43,625.26 C139.161327,634.716214 132.216521,643.706362 124.65,652.16 L124.42,652.41 C124.42,652.41 123.54,653.08 122.14,653.94 C119.63843,655.536784 116.881944,656.693493 113.99,657.36 L112.77,657 L111.1,656.48 C108.3,655.6 105.523333,654.636667 102.77,653.59 L101.1,652.95 C98.4333333,651.923333 95.8233333,650.82 93.27,649.64 L91.6,648.88 C88.9333333,647.64 86.3233333,646.33 83.77,644.95 C82.85,644.47 81.94,643.95 81.04,643.46 C78.32,641.94 75.6533333,640.346667 73.04,638.68 C70.2666667,636.913333 67.5533333,635.07 64.9,633.15 C63.6733333,632.27 62.46,631.366667 61.26,630.44 C59.91,627.88 58.83,625.72 58.16,624.38 C56.52,621.09 56.38,616.38 56.58,612.97 C56.58,612.62 56.58,612.29 56.64,611.97 C56.81,609.83 57.07,608.36 57.07,608.36 C57.07,608.36 56.26,607.27 55.28,605.79 C54.73,604.97 54.14,604.02 53.61,603.08 C52.61,601.32 51.83,599.54 51.98,598.53 C52.0002784,598.35726 52.0002784,598.18274 51.98,598.01 C51.9649802,597.672351 51.914707,597.337196 51.83,597.01 C51.06,593.85 47.74,588.42 44.68,585.01 C42.4,582.5 42.26,573.12 42.47,566.47 C42.47,566.13 42.47,565.8 42.47,565.47 C42.61,562.02 42.82,559.53 42.82,559.53 C41.69,559.04 40.82,555.41 40.26,551.53 L40.11,550.53 C39.47,545.94 39.18,541.33 39.18,541.33 C31.78,535.94 28.26,527.53 26.63,520.03 C25.4944311,514.777117 25.0573212,509.397303 25.33,504.03 C25.33,503.87 25.33,503.78 25.33,503.78 C25.33,503.78 26.19,482 28.93,473.53 C29.04,473.17 29.16,472.84 29.28,472.53 C29.5199616,472.010955 29.8185736,471.521097 30.17,471.07 C31.69,468.95 32.7,463.85 33.36,458.63 L33.48,457.63 C34.31,450.63 34.54,443.76 34.54,443.76 L32.68,434.64 C32.1733333,432.14 31.7833333,429.636667 31.51,427.13 C31.46,426.8 31.43,426.46 31.39,426.13 C30.9223966,421.494834 30.8387785,416.828944 31.14,412.18 C31.14,411.84 31.14,411.51 31.21,411.18 C31.9860743,400.590359 34.754563,390.242454 39.37,380.68 C39.53,380.34 39.69,380.01 39.87,379.68 C41.1557522,377.082784 42.5846147,374.558905 44.15,372.12 C44.69,371.27 45.24,370.43 45.82,369.6 C46.73,368.28 47.68,366.98 48.67,365.72 L49.47,364.72 C52.5636937,360.866264 56.0011596,357.301609 59.74,354.07 C70.74,344.64 80.74,341 89.74,341.33 C125.19,342.6 145.09,405.38 148.36,416.56 C148.68,417.66 148.84,418.26 148.84,418.26 C148.84,418.26 163.77,433.19 159.4,439.74 C158.552703,441.181813 158.036901,442.79412 157.89,444.46 C156.68,453.27 160.13,467.78 160.13,467.78 C160.13,467.78 161.35,471.78 164.91,481.36 C165.23,482.25 165.58,483.18 165.91,484.16 C168.14,490.16 168.66,500.23 167.38,509.25 C166.15,517.9 163.27,525.53 158.63,527.49 C149.17,531.49 151.71,535.49 153.9,538.78 C155.195428,541.138344 156.276437,543.608265 157.13,546.16 C158.86,550.87 160.45,555.89 160.45,555.89 C161.104464,555.637443 161.772105,555.42046 162.45,555.24 C163.84119,554.782513 165.31439,554.629055 166.77,554.79 C167.596418,554.854059 168.287189,555.44384 168.48,556.25 C168.75,557.45 170.82,558.94 173.33,560.35 C176.589093,562.12362 179.95182,563.699794 183.4,565.07 Z" id="Path" fill="#CED7E7"></path>
            <path d="M51.78,468.91 C55.24,468.73 92.38,454.35 100.03,459.26 C107.68,464.17 155.03,496.03 155.03,496.03 C155.03,496.03 125.36,457.26 99.51,448.16 C73.66,439.06 51.78,468.91 51.78,468.91 Z" id="Path" fill="#000000" opacity="0.1"></path>
            <path d="M105.17,527.53 C105.17,527.53 142.31,534.99 147.95,540.09 L105.17,527.53 Z" id="Path" fill="#000000" opacity="0.1"></path>
            <path d="M98.02,583.07 C97.48,583.62 84.02,613.83 85.1,613.83 C86.18,613.83 97.66,595.83 97.66,595.83 L98.02,583.07 Z" id="Path" fill="#000000" opacity="0.1"></path>
            <path d="M123.33,546.82 C123.33,546.82 112.41,550.65 113.68,551.01 C114.95,551.37 122.96,548.46 123.33,546.82 Z" id="Path" fill="#000000" opacity="0.1"></path>
            <path d="M112.41,592.52 C114.23,596.34 120.05,607.81 121.33,605.99 C122.61,604.17 112.41,592.52 112.41,592.52 Z" id="Path" fill="#000000" opacity="0.1"></path>
            <path d="M248.73,289.74 L247.17,291.96 C247.17,291.96 234.78,283.23 229.69,278.86 C224.6,274.49 212.58,294.51 203.11,299.97 C193.64,305.43 177.63,306.89 177.63,306.89 C177.63,306.89 165.25,294.51 165.63,290.89 C166.01,287.27 159.81,286.16 159.44,283.61 C159.07,281.06 156.89,273.78 153.98,270.14 C152.44,268.22 152.22,262.21 152.36,256.98 C153.36,256.78 153.98,256.67 153.98,256.67 C155.534276,253.845689 157.499001,251.267619 159.81,249.02 C163.09,246.11 168.18,228.27 168.18,228.27 C171.09,218.44 176.91,221.35 176.91,221.35 C176.91,236.28 192.21,241.74 199.85,247.93 C207.49,254.12 219.51,270.14 228.98,273.42 C236.75,276.07 245.84,286.32 248.73,289.74 Z" id="Path" fill="#000000" opacity="0.1"></path>
            <path d="M248.73,287.55 L247.17,289.78 C247.17,289.78 234.73,281.07 229.64,276.67 C224.55,272.27 212.53,292.32 203.06,297.78 C193.59,303.24 177.58,304.71 177.58,304.71 C177.58,304.71 165.2,292.32 165.58,288.71 C165.96,285.1 159.76,283.98 159.39,281.42 C159.02,278.86 156.84,271.59 153.93,267.95 C152.39,266.03 152.17,260.02 152.31,254.79 L153.93,254.49 C155.484276,251.665689 157.449001,249.087619 159.76,246.84 C163.04,243.92 168.13,226.09 168.13,226.09 C171.04,216.26 176.86,219.16 176.86,219.16 C176.86,234.09 192.16,239.56 199.8,245.75 C207.44,251.94 219.46,267.95 228.93,271.23 C236.75,273.92 245.84,284.13 248.73,287.55 Z" id="Path" fill="#CED7E7"></path>
            <path d="M249.66,290.51 C249.66,290.51 238.93,296.33 230.55,296.88 C229.453033,296.931188 228.35372,296.867508 227.27,296.69 L227.27,296.69 C227.27,296.69 236.52,289.78 245.11,288.37 L249.66,290.51 Z" id="Path" fill="#000000" opacity="0.1"></path>
            <path d="M271.51,320.18 C271.51,320.18 257.98,314.91 253.51,322.84 C253.66,319.2 253.72,316.18 253.72,316.18 L268.47,313.26 C268.47,313.26 269.89,315.89 271.55,319.43 C271.51,319.9 271.51,320.18 271.51,320.18 Z" id="Path" fill="#000000" opacity="0.1"></path>
            <path d="M227.27,296.69 C227.27,296.69 243.48,286.96 251.27,287.78 C259.44,288.63 275.27,289.23 275.27,289.23 C275.27,289.23 269.81,301.61 270.54,304.16 C271.27,306.71 271.45,319.09 271.45,319.09 C271.45,319.09 255.07,312.72 252.34,324.55 C252.34,324.55 243.42,311.26 237.41,307.25 C233.422103,304.368838 229.987029,300.791484 227.27,296.69 Z" id="Path" fill="#63667E"></path>
            <path d="M318.84,307.99 C314.11,307.99 297.36,297.42 293.72,290.51 C290.08,283.6 284.98,291.23 280.25,293.79 C277.25,295.43 265.36,292 258.95,289.51 C262.2,287.3 269.4,281.08 271.51,279.59 C274.05,277.76 276.61,248.27 276.61,248.27 C285.71,243.54 295.54,286.5 295.54,286.5 C295.54,286.5 312.66,291.6 314.11,295.24 C314.39,295.96 315.68,297.24 317.62,298.79 C319.62,303.83 320.72,307.99 318.84,307.99 Z" id="Path" fill="#000000" opacity="0.1"></path>
            <path d="M318.84,305.8 C314.11,305.8 297.36,295.24 293.72,288.33 C290.08,281.42 284.98,289.05 280.25,291.6 C277.25,293.24 267.72,290.07 261.31,287.6 C264.56,285.4 269.4,278.92 271.51,277.42 C274.05,275.6 276.61,246.11 276.61,246.11 C285.71,241.38 295.54,284.34 295.54,284.34 C295.54,284.34 312.66,289.44 314.11,293.08 C314.39,293.8 315.68,295.08 317.62,296.63 C319.62,301.64 320.72,305.8 318.84,305.8 Z" id="Path" fill="#CED7E7"></path>
            <path d="M383.53,624.77 L541.84,492.77 C543.419698,491.435513 545.432584,490.724246 547.5,490.77 L606.56,492.32 C606.56,492.32 610.65,495.32 604.65,501.88 L455.31,624.43 C453.696229,625.749352 451.693322,626.50132 449.61,626.57 L385.03,628.711106 C384.079338,628.739834 383.214386,628.163418 382.875976,627.274527 C382.537566,626.385636 382.80019,625.379939 383.53,624.77 L383.53,624.77 Z" id="Path" fill="#4285F4"></path>
            <path d="M460.11,608.53 C460.11,608.53 494.69,658.05 533.11,611.99 C571.53,565.93 560.42,541.73 548.77,540.45 C537.12,539.17 471.57,589.6 460.11,608.53 Z" id="Path" fill="#FFA2A2"></path>
            <path d="M693.34,54.67 C693.34,54.67 737.91,-31.83 790.59,12.78 C790.59,12.78 802.09,16.97 801.22,29.13 C801.22,29.13 796.79,26.7 793.27,35.99 C791.977212,39.2863479 790.298875,42.4181254 788.27,45.32 C785.573531,49.2401531 781.678834,52.1804733 777.17,53.7 L777.17,53.7 C777.17,53.7 753.53,71.41 709.74,57.75 C709.74,57.75 697.36,59.53 695.36,57.99 L709.75,47.47 C709.75,47.47 717.06,58.32 727.75,59.56 C727.75,59.56 709.75,48.26 711.81,45.81 C712.23,45.31 719.69,40.58 719.69,40.58 C719.69,40.58 732.48,59.39 749.06,60.78 C749.06,60.78 725.83,50.19 722.5,38.78 L734.17,32.27 C734.17,32.27 746.71,52.82 765.54,55.12 C765.54,55.12 741.64,43.21 736.82,31.02 L749.17,26.2 C749.17,26.2 761.8,46 777.47,47.81 C777.47,47.81 751.25,31.26 752.07,25.28 C752.07,25.28 763.68,21.54 767.24,22.03 C767.24,22.03 776.63,36.03 785.83,36.28 C785.83,36.28 769.48,23.36 770.56,21.37 C770.56,21.37 786.98,20.52 795.56,24.49 C795.56,24.49 783.36,17.7 770.56,18.8 C770.56,18.8 776.35,11.99 783.9,10.49 C783.9,10.49 774.85,6.77 766.58,19.05 C766.58,19.05 753.81,20.22 752.23,21.64 C752.23,21.64 758.69,8.36 766.64,2.71 C766.64,2.71 754.79,4.8 748.92,22.8 L736.4,27.37 C736.4,27.37 744.01,9.37 750.72,3.81 C750.72,3.81 738.96,7.81 733.34,28.81 L721.82,35.07 C721.82,35.07 727.19,19.07 733.32,11.26 C733.32,11.26 723.21,17.32 718.58,36.98 L711.38,42.05 C711.38,42.05 715.51,30.43 717,27.2 C718.49,23.97 717.74,23.3 717.74,23.3 C712.735009,29.2171742 709.47052,36.407358 708.31,44.07 C708.31,44.07 694.17,55.47 693.34,54.67 Z" id="Path" fill="#4285F4" opacity="0.1"></path>
            <path d="M877.67,100.93 C877.67,100.93 897.81,61.84 921.61,82 C921.61,82 926.81,83.89 926.41,89.38 C926.41,89.38 924.41,88.29 922.82,92.49 C922.243911,93.9776477 921.4919,95.3910257 920.58,96.7 C919.363063,98.4669998 917.610086,99.7957564 915.58,100.49 L915.58,100.49 C915.58,100.49 904.89,108.49 885.1,102.32 C885.1,102.32 879.51,103.12 878.61,102.43 L885.11,97.67 C885.11,97.67 888.41,102.58 893.25,103.13 C893.25,103.13 885.13,98.03 886.05,96.92 C886.23,96.7 889.6,94.56 889.6,94.56 C889.6,94.56 895.38,103.06 902.88,103.69 C902.88,103.69 892.38,98.9 890.88,93.69 L896.16,90.76 C896.16,90.76 901.82,100.05 910.33,101.09 C910.33,101.09 899.53,95.71 897.33,90.2 L902.91,88.02 C902.91,88.02 908.61,96.97 915.69,97.79 C915.69,97.79 903.84,90.31 904.22,87.61 C904.22,87.61 909.46,85.92 911.07,86.14 C911.07,86.14 915.31,92.47 919.47,92.57 C919.47,92.57 912.08,86.74 912.57,85.84 C912.57,85.84 919.99,85.46 923.85,87.25 C923.85,87.25 918.34,84.18 912.57,84.68 C914.161657,82.8696915 916.246822,81.5629882 918.57,80.92 C918.57,80.92 914.48,79.24 910.74,84.79 C910.74,84.79 904.97,85.32 904.26,85.96 C904.26,85.96 907.18,79.96 910.77,77.41 C910.77,77.41 905.41,78.35 902.77,86.49 L897.17,88.59 C897.17,88.59 900.6,80.46 903.64,77.94 C903.64,77.94 898.32,79.75 895.78,89.23 L890.58,92.05 C890.58,92.05 893,84.81 895.77,81.29 C895.77,81.29 891.2,84.03 889.12,92.91 L885.86,95.2 C885.86,95.2 887.73,89.95 888.4,88.49 C889.07,87.03 888.73,86.73 888.73,86.73 C886.468261,89.4130822 884.993768,92.6701212 884.47,96.14 C884.47,96.14 878.02,101.29 877.67,100.93 Z" id="Path" fill="#4285F4" opacity="0.1"></path>
            <path d="M659.44,146.41 C659.44,146.41 679.58,107.32 703.44,127.48 C703.44,127.48 708.63,129.37 708.24,134.87 C708.24,134.87 706.24,133.77 704.65,137.97 C704.070324,139.456003 703.318532,140.86897 702.41,142.18 C701.18014,143.955555 699.408461,145.285192 697.36,145.97 L697.36,145.97 C697.36,145.97 686.68,153.97 666.89,147.8 C666.89,147.8 661.3,148.61 660.4,147.91 L666.9,143.15 C666.9,143.15 670.2,148.06 675.03,148.62 C675.03,148.62 666.91,143.51 667.83,142.4 C668.02,142.18 671.39,140.04 671.39,140.04 C671.39,140.04 677.17,148.54 684.66,149.17 C684.66,149.17 674.17,144.38 672.66,139.17 L677.94,136.25 C677.94,136.25 683.61,145.53 692.12,146.57 C692.12,146.57 681.32,141.19 679.12,135.68 L684.7,133.5 C684.7,133.5 690.41,142.45 697.49,143.27 C697.49,143.27 685.64,135.79 686.01,133.09 C686.01,133.09 691.26,131.4 692.87,131.62 C692.87,131.62 697.11,137.95 701.27,138.06 C701.27,138.06 693.88,132.22 694.37,131.32 C694.37,131.32 701.78,130.94 705.65,132.73 C705.65,132.73 700.13,129.66 694.36,130.16 C695.951657,128.349691 698.036822,127.042988 700.36,126.4 C700.36,126.4 696.28,124.72 692.54,130.27 C692.54,130.27 686.77,130.8 686.06,131.44 C686.06,131.44 688.97,125.44 692.57,122.89 C692.57,122.89 687.21,123.83 684.57,131.97 L678.9,134.07 C678.9,134.07 682.34,125.94 685.37,123.43 C685.37,123.43 680.06,125.23 677.52,134.71 L672.31,137.53 C672.31,137.53 674.74,130.29 677.51,126.77 C677.51,126.77 672.94,129.51 670.85,138.39 L667.59,140.68 C667.59,140.68 669.46,135.43 670.13,133.97 C670.8,132.51 670.47,132.21 670.47,132.21 C668.203783,134.890255 666.728688,138.148621 666.21,141.62 C666.21,141.62 659.79,146.77 659.44,146.41 Z" id="Path" fill="#4285F4" opacity="0.1"></path>
        </g>
    </g>
</svg>